<svg width="50" height="53" viewBox="0 0 50 53" fill="none" xmlns="http://www.w3.org/2000/svg">
  <path d="M11.96 52.1C11.4333 52.1 11.03 51.95 10.75 51.65C10.4767 51.35 10.34 50.9267 10.34 50.38V46.62C10.34 46.0733 10.4767 45.65 10.75 45.35C11.03 45.05 11.4333 44.9 11.96 44.9C12.4867 44.9 12.8867 45.05 13.16 45.35C13.44 45.65 13.58 46.0733 13.58 46.62V47.36H12.54V46.55C12.54 46.1167 12.3567 45.9 11.99 45.9C11.6233 45.9 11.44 46.1167 11.44 46.55V50.46C11.44 50.8867 11.6233 51.1 11.99 51.1C12.3567 51.1 12.54 50.8867 12.54 50.46V49.39H13.58V50.38C13.58 50.9267 13.44 51.35 13.16 51.65C12.8867 51.95 12.4867 52.1 11.96 52.1ZM15.0881 45H16.5781L17.7181 52H16.6181L16.4181 50.61V50.63H15.1681L14.9681 52H13.9481L15.0881 45ZM16.2881 49.68L15.7981 46.22H15.7781L15.2981 49.68H16.2881ZM19.6525 52.1C19.1192 52.1 18.7158 51.95 18.4425 51.65C18.1692 51.3433 18.0325 50.9067 18.0325 50.34V49.94H19.0725V50.42C19.0725 50.8733 19.2625 51.1 19.6425 51.1C19.8292 51.1 19.9692 51.0467 20.0625 50.94C20.1625 50.8267 20.2125 50.6467 20.2125 50.4C20.2125 50.1067 20.1458 49.85 20.0125 49.63C19.8792 49.4033 19.6325 49.1333 19.2725 48.82C18.8192 48.42 18.5025 48.06 18.3225 47.74C18.1425 47.4133 18.0525 47.0467 18.0525 46.64C18.0525 46.0867 18.1925 45.66 18.4725 45.36C18.7525 45.0533 19.1592 44.9 19.6925 44.9C20.2192 44.9 20.6158 45.0533 20.8825 45.36C21.1558 45.66 21.2925 46.0933 21.2925 46.66V46.95H20.2525V46.59C20.2525 46.35 20.2058 46.1767 20.1125 46.07C20.0192 45.9567 19.8825 45.9 19.7025 45.9C19.3358 45.9 19.1525 46.1233 19.1525 46.57C19.1525 46.8233 19.2192 47.06 19.3525 47.28C19.4925 47.5 19.7425 47.7667 20.1025 48.08C20.5625 48.48 20.8792 48.8433 21.0525 49.17C21.2258 49.4967 21.3125 49.88 21.3125 50.32C21.3125 50.8933 21.1692 51.3333 20.8825 51.64C20.6025 51.9467 20.1925 52.1 19.6525 52.1ZM23.5432 52.1C23.0099 52.1 22.6032 51.95 22.3232 51.65C22.0432 51.3433 21.9032 50.9067 21.9032 50.34V45H23.0032V50.42C23.0032 50.66 23.0499 50.8333 23.1432 50.94C23.2432 51.0467 23.3832 51.1 23.5632 51.1C23.7432 51.1 23.8799 51.0467 23.9732 50.94C24.0732 50.8333 24.1232 50.66 24.1232 50.42V45H25.1832V50.34C25.1832 50.9067 25.0432 51.3433 24.7632 51.65C24.4832 51.95 24.0765 52.1 23.5432 52.1ZM26.7971 45H28.2871L29.4271 52H28.3271L28.1271 50.61V50.63H26.8771L26.6771 52H25.6571L26.7971 45ZM27.9971 49.68L27.5071 46.22H27.4871L27.0071 49.68H27.9971ZM29.9608 45H31.0608V51H32.8708V52H29.9608V45ZM33.3983 45H34.4983V51H36.3083V52H33.3983V45ZM36.9669 49.02L35.6369 45H36.8069L37.5569 47.57H37.5769L38.3269 45H39.3969L38.0669 49.02V52H36.9669V49.02Z" fill="black"/>
  <path d="M1.96 29.1C1.43333 29.1 1.03 28.95 0.75 28.65C0.476667 28.35 0.34 27.9267 0.34 27.38V23.62C0.34 23.0733 0.476667 22.65 0.75 22.35C1.03 22.05 1.43333 21.9 1.96 21.9C2.48667 21.9 2.88667 22.05 3.16 22.35C3.44 22.65 3.58 23.0733 3.58 23.62V24.36H2.54V23.55C2.54 23.1167 2.35667 22.9 1.99 22.9C1.62333 22.9 1.44 23.1167 1.44 23.55V27.46C1.44 27.8867 1.62333 28.1 1.99 28.1C2.35667 28.1 2.54 27.8867 2.54 27.46V26.39H3.58V27.38C3.58 27.9267 3.44 28.35 3.16 28.65C2.88667 28.95 2.48667 29.1 1.96 29.1Z" fill="black"/>
  <path d="M47.96 29.1C47.4333 29.1 47.03 28.95 46.75 28.65C46.4767 28.35 46.34 27.9267 46.34 27.38V23.62C46.34 23.0733 46.4767 22.65 46.75 22.35C47.03 22.05 47.4333 21.9 47.96 21.9C48.4867 21.9 48.8867 22.05 49.16 22.35C49.44 22.65 49.58 23.0733 49.58 23.62V24.36H48.54V23.55C48.54 23.1167 48.3567 22.9 47.99 22.9C47.6233 22.9 47.44 23.1167 47.44 23.55V27.46C47.44 27.8867 47.6233 28.1 47.99 28.1C48.3567 28.1 48.54 27.8867 48.54 27.46V26.39H49.58V27.38C49.58 27.9267 49.44 28.35 49.16 28.65C48.8867 28.95 48.4867 29.1 47.96 29.1Z" fill="black"/>
  <path d="M1.45631 48.0378L48.0583 1.43584" stroke="#292929" stroke-width="2"/>
  <path d="M1.45631 1.43584L48.0583 48.0378" stroke="#292929" stroke-width="2"/>
  <rect x="21.3592" y="24.7368" width="4.85437" height="4.85437" transform="rotate(-45 21.3592 24.7368)" fill="#707070"/>
  <path d="M18.6796 8.20283H30.8155C31.0086 8.20283 31.1939 8.27954 31.3304 8.4161C31.467 8.55265 31.5437 8.73786 31.5437 8.93098C31.5437 9.1241 31.467 9.30931 31.3304 9.44587C31.1939 9.58242 31.0086 9.65914 30.8155 9.65914H18.6796C18.584 9.65914 18.4893 9.6403 18.4009 9.60371C18.3126 9.56712 18.2323 9.51348 18.1647 9.44587C18.0971 9.37825 18.0435 9.29798 18.0069 9.20964C17.9703 9.12129 17.9514 9.02661 17.9514 8.93098C17.9514 8.83536 17.9703 8.74067 18.0069 8.65233C18.0435 8.56399 18.0971 8.48371 18.1647 8.4161C18.2323 8.34848 18.3126 8.29485 18.4009 8.25825C18.4893 8.22166 18.584 8.20283 18.6796 8.20283" fill="#DFDFDF"/>
  <path d="M19.6602 2.7805L20.9709 1.1203C21.0018 1.08268 21.0407 1.05239 21.0848 1.03159C21.1289 1.01079 21.177 1 21.2257 1C21.2744 1 21.3226 1.01079 21.3666 1.03159C21.4107 1.05239 21.4496 1.08268 21.4806 1.1203C21.6845 1.38244 21.966 1.75623 22.2427 2.09118C22.416 2.31108 22.6374 2.48841 22.8898 2.60957C23.1422 2.73073 23.419 2.79252 23.699 2.79021H25.8446C26.1245 2.7918 26.4011 2.72969 26.6534 2.60858C26.9057 2.48747 27.1271 2.31054 27.301 2.09118L28.0631 1.1203C28.0936 1.0861 28.131 1.05873 28.1728 1.03999C28.2147 1.02125 28.26 1.01156 28.3058 1.01156C28.3516 1.01156 28.397 1.02125 28.4388 1.03999C28.4806 1.05873 28.518 1.0861 28.5485 1.1203L29.8641 2.7805L27.6699 6.63001L22.1019 6.71254L19.6602 2.7805Z" fill="#E2E2E2"/>
  <path d="M18.0534 1.95526C18.0468 1.88856 18.061 1.82146 18.094 1.76314C18.127 1.70482 18.1773 1.65812 18.2378 1.62943C18.2984 1.60074 18.3664 1.59146 18.4324 1.60286C18.4984 1.61426 18.5593 1.64578 18.6068 1.69312L20.8155 3.96982C20.8858 4.04324 20.9702 4.10168 21.0636 4.1416C21.157 4.18152 21.2576 4.2021 21.3592 4.2021C21.4608 4.2021 21.5614 4.18152 21.6548 4.1416C21.7483 4.10168 21.8327 4.04324 21.9029 3.96982L24.5243 1.26594C24.5552 1.2324 24.5927 1.20563 24.6345 1.18732C24.6763 1.16901 24.7214 1.15956 24.767 1.15956C24.8126 1.15956 24.8577 1.16901 24.8995 1.18732C24.9413 1.20563 24.9788 1.2324 25.0097 1.26594L27.6311 3.96982C27.7013 4.04324 27.7857 4.10168 27.8791 4.1416C27.9726 4.18152 28.0731 4.2021 28.1748 4.2021C28.2764 4.2021 28.3769 4.18152 28.4704 4.1416C28.5638 4.10168 28.6482 4.04324 28.7184 3.96982L30.9272 1.69312C30.9741 1.64508 31.0348 1.61276 31.1009 1.60059C31.1669 1.58842 31.2351 1.597 31.2961 1.62516C31.357 1.65466 31.4073 1.70214 31.4403 1.76118C31.4733 1.82022 31.4873 1.88796 31.4806 1.95526L30.8349 8.20283H18.699L18.0534 1.95526Z" fill="#B8B8B8"/>
  <path fill-rule="evenodd" clip-rule="evenodd" d="M25 5.93584C24.9689 5.96881 24.9312 5.99491 24.8894 6.01246C24.8476 6.03002 24.8026 6.03864 24.7573 6.03778C24.7113 6.03816 24.6657 6.02934 24.6232 6.01183C24.5807 5.99432 24.5421 5.96848 24.5097 5.93584L23.5146 4.96496C23.4505 4.90041 23.4146 4.81317 23.4146 4.72224C23.4146 4.63132 23.4505 4.54408 23.5146 4.47953L24.5097 3.48438C24.5417 3.45085 24.5801 3.42412 24.6226 3.40577C24.6651 3.38742 24.7109 3.37783 24.7573 3.37758C24.8026 3.37672 24.8476 3.38534 24.8894 3.4029C24.9312 3.42046 24.9689 3.44656 25 3.47953L26 4.47467C26.064 4.53923 26.0999 4.62647 26.0999 4.71739C26.0999 4.80831 26.064 4.89555 26 4.96011L25 5.93584Z" fill="#D8D8D8"/>
  <path d="M20.199 6.86788C20.1919 6.79488 20.163 6.72572 20.1159 6.66947C20.0688 6.61321 20.0059 6.57249 19.9353 6.55262C19.8647 6.53275 19.7897 6.53467 19.7202 6.55812C19.6507 6.58158 19.5899 6.62547 19.5458 6.68406C19.5017 6.74265 19.4763 6.8132 19.4729 6.88647C19.4696 6.95973 19.4885 7.0323 19.5271 7.09467C19.5657 7.15704 19.6222 7.2063 19.6892 7.23599C19.7563 7.26568 19.8308 7.27443 19.9029 7.26108C19.9505 7.25453 19.9962 7.23864 20.0376 7.21433C20.079 7.19001 20.1152 7.15775 20.1441 7.1194C20.173 7.08105 20.194 7.03737 20.2059 6.99087C20.2178 6.94437 20.2204 6.89597 20.2136 6.84846" fill="#9A9A9A"/>
  <path d="M20.0097 5.53292C19.9994 5.46175 19.9683 5.39521 19.9203 5.34169C19.8723 5.28817 19.8095 5.25008 19.7398 5.23221C19.6702 5.21434 19.5968 5.2175 19.5289 5.24129C19.461 5.26508 19.4017 5.30843 19.3585 5.36588C19.3152 5.42333 19.29 5.49229 19.2859 5.56409C19.2818 5.63588 19.299 5.70728 19.3354 5.76928C19.3718 5.83129 19.4258 5.88111 19.4905 5.91248C19.5552 5.94385 19.6278 5.95536 19.699 5.94555C19.7466 5.939 19.7924 5.92311 19.8338 5.89879C19.8751 5.87448 19.9113 5.84222 19.9402 5.80387C19.9691 5.76552 19.9901 5.72184 20.002 5.67534C20.0139 5.62884 20.0165 5.58044 20.0097 5.53292" fill="#9A9A9A"/>
  <path d="M19.8204 4.19312C19.8106 4.09598 19.7626 4.0067 19.6871 3.94482C19.6116 3.88295 19.5146 3.85353 19.4175 3.86302C19.3223 3.87741 19.2367 3.92889 19.1794 4.00622C19.1221 4.08354 19.0977 4.18041 19.1116 4.27564V4.27564C19.117 4.32327 19.1319 4.36932 19.1555 4.41101C19.1791 4.45271 19.2109 4.48918 19.2491 4.51822C19.2872 4.54726 19.3308 4.56827 19.3773 4.57997C19.4237 4.59168 19.4721 4.59384 19.5194 4.58632C19.567 4.57977 19.6128 4.56388 19.6541 4.53957C19.6955 4.51525 19.7317 4.48299 19.7606 4.44464C19.7895 4.40629 19.8105 4.36261 19.8224 4.31611C19.8343 4.26961 19.8369 4.22122 19.8301 4.1737L19.8204 4.19312Z" fill="#9A9A9A"/>
  <path d="M29.3155 6.86788C29.3226 6.79488 29.3516 6.72572 29.3987 6.66947C29.4457 6.61321 29.5087 6.57249 29.5793 6.55262C29.6499 6.53275 29.7248 6.53467 29.7943 6.55812C29.8638 6.58158 29.9246 6.62547 29.9687 6.68406C30.0128 6.74265 30.0382 6.8132 30.0416 6.88647C30.0449 6.95973 30.0261 7.0323 29.9875 7.09467C29.9489 7.15704 29.8924 7.2063 29.8253 7.23599C29.7582 7.26568 29.6838 7.27443 29.6116 7.26108C29.5641 7.25453 29.5183 7.23864 29.4769 7.21433C29.4355 7.19001 29.3993 7.15775 29.3705 7.1194C29.3416 7.08105 29.3206 7.03737 29.3087 6.99087C29.2967 6.94437 29.2941 6.89597 29.301 6.84846" fill="#9A9A9A"/>
  <path d="M29.5048 5.53292C29.5151 5.46175 29.5462 5.39521 29.5942 5.34169C29.6423 5.28817 29.7051 5.25008 29.7747 5.23221C29.8444 5.21434 29.9178 5.2175 29.9856 5.24129C30.0535 5.26508 30.1128 5.30843 30.156 5.36588C30.1993 5.42333 30.2246 5.49229 30.2287 5.56409C30.2328 5.63588 30.2155 5.70728 30.1791 5.76928C30.1427 5.83129 30.0887 5.88111 30.024 5.91248C29.9593 5.94385 29.8868 5.95536 29.8155 5.94555C29.768 5.939 29.7222 5.92311 29.6808 5.89879C29.6394 5.87448 29.6032 5.84222 29.5743 5.80387C29.5455 5.76552 29.5245 5.72184 29.5125 5.67534C29.5006 5.62884 29.498 5.58044 29.5048 5.53292" fill="#9A9A9A"/>
  <path d="M29.6942 4.19312C29.6971 4.14285 29.7104 4.09372 29.7333 4.04885C29.7561 4.00399 29.788 3.96435 29.827 3.93245C29.866 3.90055 29.9111 3.87708 29.9596 3.86353C30.0081 3.84998 30.0589 3.84663 30.1088 3.8537C30.1586 3.86078 30.2065 3.87812 30.2493 3.90463C30.2921 3.93114 30.329 3.96625 30.3575 4.00773C30.3861 4.04921 30.4057 4.09616 30.4152 4.14562C30.4247 4.19507 30.4238 4.24596 30.4126 4.29506V4.29506C30.4097 4.34534 30.3964 4.39446 30.3735 4.43933C30.3507 4.48419 30.3187 4.52383 30.2798 4.55573C30.2408 4.58763 30.1956 4.6111 30.1471 4.62465C30.0986 4.6382 30.0479 4.64155 29.998 4.63448C29.9481 4.6274 29.9003 4.61006 29.8575 4.58355C29.8147 4.55704 29.7778 4.52193 29.7493 4.48045C29.7207 4.43897 29.7011 4.39202 29.6916 4.34256C29.6821 4.29311 29.683 4.24222 29.6942 4.19312V4.19312Z" fill="#9A9A9A"/>
</svg>
